<svg xmlns="http://www.w3.org/2000/svg" width="2350" height="2350" viewBox="0 0 2350 2350"><g transform="translate(-2601 -11760)"><g transform="translate(2601 11760)" fill="rgba(121,110,255,0.3)" stroke="#707070" stroke-width="1"><circle cx="1175" cy="1175" r="1175" stroke="none"/><circle cx="1175" cy="1175" r="1174.5" fill="none"/></g><g transform="translate(3176 12435)"><path d="M0,0H1200V1000H0Z" fill="none"/><path d="M1198,128c0-68.2-53.82-124-119.6-124H121.6C55.82,4,2,59.8,2,128V872c0,68.2,53.82,124,119.6,124h956.8c65.78,0,119.6-55.8,119.6-124Zm-119.6,0L600,438,121.6,128Zm0,744H121.6V252L600,562l478.4-310Z" transform="translate(0)" fill="#502a57"/></g></g></svg>